<svg xmlns="http://www.w3.org/2000/svg" xmlns:xlink="http://www.w3.org/1999/xlink" width="192" zoomAndPan="magnify" viewBox="0 0 144 143.999998" height="192" preserveAspectRatio="xMidYMid meet" version="1.0"><defs><g/><clipPath id="8789ded002"><path d="M 85.011719 12.890625 L 116.53125 12.890625 L 116.53125 45.535156 L 85.011719 45.535156 Z M 85.011719 12.890625 " clip-rule="nonzero"/></clipPath><clipPath id="a11142b44e"><path d="M 24.441406 92.257812 L 55.484375 92.257812 L 55.484375 124.898438 L 24.441406 124.898438 Z M 24.441406 92.257812 " clip-rule="nonzero"/></clipPath></defs><rect x="-14.4" width="172.8" fill="#ffffff" y="-14.4" height="172.799997" fill-opacity="1"/><rect x="-14.4" width="172.8" fill="#ffffff" y="-14.4" height="172.799997" fill-opacity="1"/><rect x="-14.4" width="172.8" fill="#a1a1a1" y="-14.4" height="172.799997" fill-opacity="1"/><g clip-path="url(#8789ded002)"><path fill="#ffffff" d="M 90.816406 41.84375 C 92.082031 41.027344 93.351562 40.238281 94.46875 39.234375 C 94.625 39.09375 94.667969 38.933594 94.644531 38.742188 C 94.625 38.554688 94.597656 38.363281 94.550781 38.179688 C 94.421875 37.617188 94.328125 37.054688 94.292969 36.480469 C 94.269531 36.03125 94.347656 35.59375 94.472656 35.160156 C 94.578125 34.800781 94.714844 34.453125 94.761719 34.074219 C 94.78125 33.933594 94.796875 33.792969 94.777344 33.652344 C 94.683594 32.980469 94.785156 32.324219 94.925781 31.671875 C 95.050781 31.085938 95.199219 30.5 95.335938 29.914062 C 95.355469 29.847656 95.371094 29.777344 95.402344 29.714844 C 95.46875 29.5625 95.597656 29.519531 95.75 29.589844 C 95.777344 29.601562 95.800781 29.613281 95.824219 29.632812 C 96.324219 30.035156 96.789062 30.464844 96.945312 31.132812 C 97.023438 31.46875 97.128906 31.800781 97.246094 32.125 C 97.417969 32.613281 97.441406 33.109375 97.363281 33.613281 C 97.21875 34.5 97.042969 35.382812 96.769531 36.242188 C 96.660156 36.59375 96.527344 36.9375 96.382812 37.273438 C 96.34375 37.371094 96.304688 37.46875 96.277344 37.570312 C 96.519531 37.375 96.761719 37.179688 96.96875 36.953125 C 97.433594 36.457031 97.929688 35.992188 98.417969 35.519531 C 98.507812 35.429688 98.609375 35.351562 98.695312 35.257812 C 99.277344 34.660156 99.71875 33.980469 99.964844 33.175781 C 100.214844 32.351562 100.351562 31.511719 100.3125 30.644531 C 100.304688 30.417969 100.3125 30.191406 100.308594 29.964844 C 100.304688 29.75 100.25 29.554688 100.128906 29.367188 C 99.925781 29.054688 99.792969 28.714844 99.734375 28.34375 C 99.710938 28.191406 99.726562 28.046875 99.769531 27.902344 C 99.828125 27.726562 99.925781 27.582031 100.128906 27.558594 C 100.335938 27.53125 100.484375 27.628906 100.585938 27.800781 C 100.714844 28.019531 100.777344 28.257812 100.792969 28.507812 C 100.800781 28.695312 100.769531 28.875 100.734375 29.058594 C 100.691406 29.273438 100.648438 29.488281 100.601562 29.703125 C 100.578125 29.808594 100.582031 29.914062 100.589844 30.019531 C 100.683594 31.226562 100.539062 32.40625 100.160156 33.554688 C 100.105469 33.722656 100.027344 33.878906 99.949219 34.046875 C 99.984375 34.042969 100 34.046875 100.011719 34.039062 C 100.5 33.679688 100.992188 33.320312 101.480469 32.957031 C 101.648438 32.835938 101.796875 32.695312 101.9375 32.546875 C 102.230469 32.238281 102.542969 31.949219 102.871094 31.679688 C 102.9375 31.628906 103 31.570312 103.042969 31.492188 C 103.46875 30.710938 103.621094 29.886719 103.394531 29.015625 C 103.265625 28.527344 103.214844 28.027344 103.152344 27.527344 C 103.089844 27.015625 103.003906 26.507812 102.878906 26.003906 C 102.8125 25.722656 102.683594 25.457031 102.554688 25.199219 C 102.414062 24.925781 102.316406 24.640625 102.34375 24.324219 C 102.363281 24.09375 102.441406 23.882812 102.535156 23.675781 C 102.710938 23.28125 102.851562 22.871094 102.917969 22.441406 C 102.960938 22.171875 102.988281 21.894531 103.027344 21.621094 C 103.035156 21.539062 103.046875 21.453125 103.074219 21.375 C 103.148438 21.175781 103.324219 21.136719 103.476562 21.28125 C 103.519531 21.324219 103.558594 21.378906 103.589844 21.433594 C 103.824219 21.847656 104.089844 22.238281 104.34375 22.640625 C 104.683594 23.179688 104.851562 23.773438 104.949219 24.394531 C 105.039062 24.984375 105.078125 25.578125 105.113281 26.167969 C 105.167969 27.011719 105.03125 27.835938 104.792969 28.640625 C 104.710938 28.925781 104.625 29.207031 104.535156 29.507812 C 104.625 29.507812 104.652344 29.441406 104.6875 29.398438 C 105.171875 28.808594 105.621094 28.1875 106.035156 27.546875 C 106.21875 27.261719 106.402344 26.972656 106.625 26.714844 C 106.839844 26.464844 106.949219 26.171875 107.019531 25.859375 C 107.148438 25.296875 107.210938 24.726562 107.273438 24.160156 C 107.328125 23.664062 107.378906 23.171875 107.367188 22.675781 C 107.363281 22.421875 107.335938 22.167969 107.304688 21.914062 C 107.28125 21.738281 107.21875 21.574219 107.109375 21.429688 C 106.933594 21.1875 106.8125 20.914062 106.699219 20.640625 C 106.605469 20.398438 106.574219 20.148438 106.589844 19.890625 C 106.601562 19.691406 106.667969 19.515625 106.78125 19.355469 C 107.007812 19.03125 107.386719 19.0625 107.550781 19.425781 C 107.6875 19.71875 107.734375 20.035156 107.746094 20.355469 C 107.761719 20.730469 107.734375 21.105469 107.691406 21.476562 C 107.664062 21.726562 107.644531 21.96875 107.679688 22.210938 C 107.753906 22.730469 107.710938 23.242188 107.660156 23.757812 C 107.589844 24.425781 107.511719 25.09375 107.382812 25.753906 C 107.378906 25.765625 107.386719 25.78125 107.390625 25.796875 C 107.441406 25.828125 107.464844 25.78125 107.492188 25.753906 C 107.859375 25.34375 108.265625 24.964844 108.625 24.546875 C 108.972656 24.148438 109.214844 23.683594 109.46875 23.226562 C 109.492188 23.183594 109.507812 23.132812 109.515625 23.085938 C 109.625 22.515625 109.660156 21.949219 109.5 21.382812 C 109.484375 21.320312 109.472656 21.257812 109.453125 21.195312 C 109.195312 20.375 109.226562 19.550781 109.40625 18.722656 C 109.535156 18.132812 109.644531 17.542969 109.71875 16.945312 C 109.769531 16.542969 109.746094 16.140625 109.71875 15.738281 C 109.707031 15.582031 109.691406 15.425781 109.6875 15.269531 C 109.683594 15.0625 109.785156 14.957031 109.988281 14.9375 C 110.207031 14.921875 110.378906 15 110.503906 15.171875 C 110.582031 15.277344 110.632812 15.394531 110.65625 15.519531 C 110.730469 15.878906 110.898438 16.199219 111.101562 16.5 C 111.316406 16.820312 111.476562 17.167969 111.621094 17.519531 C 111.855469 18.109375 111.886719 18.71875 111.773438 19.335938 C 111.746094 19.503906 111.714844 19.667969 111.699219 19.84375 C 111.730469 19.78125 111.765625 19.714844 111.789062 19.648438 C 112.191406 18.660156 112.59375 17.667969 112.984375 16.675781 C 113.148438 16.253906 113.238281 15.804688 113.40625 15.382812 C 113.441406 15.300781 113.433594 15.21875 113.414062 15.132812 C 113.304688 14.714844 113.367188 14.304688 113.492188 13.902344 C 113.589844 13.578125 113.773438 13.316406 114.054688 13.125 C 114.113281 13.085938 114.175781 13.046875 114.238281 13.023438 C 114.539062 12.902344 114.796875 13.03125 114.882812 13.339844 C 114.933594 13.515625 114.914062 13.691406 114.863281 13.863281 C 114.78125 14.136719 114.652344 14.390625 114.480469 14.617188 C 114.21875 14.96875 113.953125 15.316406 113.6875 15.667969 C 113.632812 15.742188 113.609375 15.832031 113.582031 15.917969 C 113.425781 16.421875 113.285156 16.925781 113.074219 17.40625 C 112.707031 18.234375 112.410156 19.089844 112.050781 19.921875 C 111.992188 20.058594 111.925781 20.191406 111.882812 20.339844 C 111.976562 20.261719 112.074219 20.183594 112.160156 20.097656 C 112.515625 19.75 112.902344 19.441406 113.316406 19.167969 C 113.914062 18.773438 114.484375 18.34375 115.128906 18.027344 C 115.203125 17.992188 115.257812 17.9375 115.308594 17.878906 C 115.449219 17.714844 115.625 17.59375 115.8125 17.496094 C 115.933594 17.4375 116.0625 17.402344 116.199219 17.398438 C 116.65625 17.382812 116.910156 17.78125 116.703125 18.191406 C 116.59375 18.414062 116.40625 18.542969 116.167969 18.5625 C 115.875 18.589844 115.574219 18.597656 115.316406 18.398438 C 115.246094 18.339844 115.183594 18.378906 115.121094 18.414062 C 114.953125 18.515625 114.777344 18.613281 114.613281 18.722656 C 114.164062 19.015625 113.71875 19.316406 113.269531 19.617188 C 112.921875 19.847656 112.617188 20.136719 112.308594 20.414062 C 111.292969 21.324219 110.429688 22.359375 109.726562 23.523438 C 109.5625 23.796875 109.414062 24.078125 109.230469 24.339844 C 109.082031 24.554688 108.925781 24.765625 108.742188 24.953125 C 108.703125 24.992188 108.65625 25.027344 108.644531 25.105469 C 108.714844 25.117188 108.757812 25.070312 108.808594 25.042969 C 109.207031 24.800781 109.582031 24.519531 109.953125 24.234375 C 110.628906 23.710938 111.378906 23.34375 112.203125 23.128906 C 112.867188 22.953125 113.515625 22.730469 114.1875 22.574219 C 114.640625 22.46875 115.109375 22.433594 115.566406 22.335938 C 115.730469 22.300781 115.898438 22.265625 116.0625 22.21875 C 116.320312 22.144531 116.550781 22.207031 116.769531 22.347656 C 116.933594 22.457031 117.003906 22.609375 116.957031 22.804688 C 116.878906 23.152344 116.714844 23.4375 116.394531 23.613281 C 116.289062 23.671875 116.179688 23.726562 116.070312 23.777344 C 115.730469 23.929688 115.433594 24.136719 115.175781 24.40625 C 114.808594 24.785156 114.476562 25.1875 114.144531 25.59375 C 113.75 26.082031 113.238281 26.3125 112.617188 26.347656 C 111.433594 26.417969 110.253906 26.449219 109.070312 26.417969 C 108.859375 26.410156 108.648438 26.445312 108.441406 26.496094 C 108.097656 26.582031 107.761719 26.691406 107.425781 26.800781 C 107.195312 26.871094 107.015625 27.007812 106.847656 27.179688 C 106.382812 27.660156 106.015625 28.21875 105.632812 28.757812 C 105.425781 29.046875 105.207031 29.328125 104.980469 29.597656 C 104.664062 29.980469 104.378906 30.382812 104.125 30.820312 C 104.183594 30.851562 104.222656 30.8125 104.261719 30.789062 C 105.519531 30.070312 106.890625 29.695312 108.300781 29.421875 C 108.511719 29.382812 108.71875 29.34375 108.929688 29.316406 C 109.0625 29.296875 109.167969 29.242188 109.269531 29.160156 C 109.652344 28.855469 110.082031 28.667969 110.570312 28.644531 C 110.988281 28.628906 111.375 28.722656 111.6875 29.023438 C 111.921875 29.246094 111.9375 29.554688 111.726562 29.753906 C 111.59375 29.878906 111.441406 29.96875 111.261719 29.992188 C 110.957031 30.035156 110.65625 30.046875 110.351562 30.015625 C 110.070312 29.988281 109.785156 29.996094 109.507812 29.925781 C 109.382812 29.894531 109.265625 29.859375 109.148438 29.800781 C 108.996094 29.726562 108.84375 29.664062 108.660156 29.695312 C 107.382812 29.890625 106.136719 30.21875 104.964844 30.773438 C 103.980469 31.238281 103.09375 31.863281 102.34375 32.664062 C 101.957031 33.074219 101.515625 33.414062 101.058594 33.734375 C 100.96875 33.796875 100.878906 33.863281 100.765625 33.945312 C 100.824219 33.957031 100.847656 33.964844 100.863281 33.960938 C 101.539062 33.832031 102.210938 33.703125 102.882812 33.566406 C 103.445312 33.457031 103.949219 33.191406 104.464844 32.960938 C 105.074219 32.691406 105.703125 32.472656 106.355469 32.335938 C 106.8125 32.242188 107.269531 32.257812 107.730469 32.296875 C 108.140625 32.328125 108.546875 32.402344 108.957031 32.394531 C 109.121094 32.390625 109.28125 32.378906 109.441406 32.355469 C 110.042969 32.285156 110.628906 32.382812 111.210938 32.5 C 111.789062 32.617188 112.371094 32.675781 112.960938 32.65625 C 113.066406 32.652344 113.175781 32.648438 113.28125 32.65625 C 113.5 32.679688 113.585938 32.839844 113.484375 33.035156 C 113.429688 33.144531 113.351562 33.238281 113.269531 33.324219 C 112.824219 33.769531 112.34375 34.15625 111.753906 34.394531 C 111.273438 34.585938 110.796875 34.785156 110.300781 34.929688 C 109.664062 35.109375 109.0625 35.375 108.460938 35.644531 C 107.933594 35.886719 107.394531 36.101562 106.8125 36.179688 C 106.503906 36.21875 106.191406 36.246094 105.882812 36.277344 C 104.613281 36.398438 103.371094 36.265625 102.144531 35.917969 C 101.8125 35.820312 101.476562 35.734375 101.152344 35.605469 C 100.933594 35.519531 100.738281 35.394531 100.5625 35.234375 C 100.425781 35.105469 100.28125 34.980469 100.136719 34.851562 C 99.953125 34.691406 99.851562 34.691406 99.660156 34.859375 C 99.625 34.890625 99.585938 34.921875 99.550781 34.957031 C 98.929688 35.554688 98.292969 36.144531 97.691406 36.761719 C 97.042969 37.429688 96.347656 38.035156 95.652344 38.652344 C 95.429688 38.847656 95.210938 39.050781 94.992188 39.253906 C 94.96875 39.277344 94.9375 39.296875 94.9375 39.34375 C 95 39.367188 95.046875 39.320312 95.09375 39.296875 C 95.445312 39.128906 95.792969 38.960938 96.152344 38.808594 C 96.929688 38.46875 97.761719 38.320312 98.574219 38.097656 C 98.988281 37.984375 99.40625 37.871094 99.835938 37.8125 C 100.671875 37.699219 101.511719 37.667969 102.355469 37.738281 C 102.679688 37.765625 103.003906 37.757812 103.328125 37.8125 C 103.402344 37.828125 103.464844 37.792969 103.53125 37.769531 C 104.042969 37.589844 104.554688 37.570312 105.070312 37.75 C 105.21875 37.800781 105.359375 37.863281 105.484375 37.957031 C 105.5625 38.011719 105.625 38.078125 105.671875 38.160156 C 105.851562 38.464844 105.753906 38.753906 105.425781 38.882812 C 105.1875 38.972656 104.9375 38.988281 104.691406 38.949219 C 104.167969 38.859375 103.707031 38.644531 103.351562 38.234375 C 103.285156 38.160156 103.21875 38.125 103.121094 38.109375 C 102.503906 38.007812 101.882812 37.964844 101.257812 37.984375 C 100.363281 38.007812 99.488281 38.144531 98.621094 38.375 C 97.839844 38.582031 97.082031 38.855469 96.316406 39.105469 C 95.339844 39.421875 94.472656 39.941406 93.597656 40.445312 C 93.121094 40.714844 92.683594 41.054688 92.207031 41.378906 C 92.285156 41.398438 92.332031 41.367188 92.382812 41.351562 C 92.621094 41.289062 92.855469 41.214844 93.097656 41.152344 C 93.507812 41.046875 93.910156 40.90625 94.300781 40.742188 C 94.863281 40.507812 95.4375 40.308594 96.027344 40.152344 C 96.410156 40.046875 96.792969 40.03125 97.179688 40.117188 C 97.707031 40.230469 98.242188 40.28125 98.777344 40.332031 C 99.324219 40.382812 99.847656 40.527344 100.363281 40.703125 C 100.671875 40.808594 100.984375 40.898438 101.300781 40.976562 C 101.46875 41.015625 101.628906 41.070312 101.78125 41.144531 C 102.363281 41.421875 102.957031 41.671875 103.578125 41.847656 C 104.101562 41.992188 104.574219 42.25 105.066406 42.46875 C 105.34375 42.59375 105.625 42.699219 105.921875 42.777344 C 106.34375 42.890625 106.765625 43.023438 107.183594 43.15625 C 107.441406 43.234375 107.480469 43.402344 107.28125 43.59375 C 106.996094 43.867188 106.6875 44.121094 106.316406 44.277344 C 106.140625 44.355469 105.96875 44.4375 105.816406 44.554688 C 105.5 44.792969 105.144531 44.945312 104.769531 45.058594 C 104.03125 45.28125 103.277344 45.449219 102.507812 45.511719 C 102.324219 45.523438 102.152344 45.503906 101.988281 45.433594 C 101.707031 45.316406 101.417969 45.21875 101.121094 45.144531 C 100.800781 45.058594 100.5 44.910156 100.195312 44.78125 C 100.015625 44.703125 99.875 44.566406 99.742188 44.429688 C 99.570312 44.25 99.363281 44.175781 99.113281 44.179688 C 98.71875 44.191406 98.320312 44.199219 97.925781 44.183594 C 97.007812 44.148438 96.152344 43.910156 95.414062 43.339844 C 95.21875 43.1875 95.007812 43.089844 94.765625 43.039062 C 94.375 42.960938 94.003906 42.824219 93.660156 42.621094 C 93.128906 42.3125 92.554688 42.121094 91.957031 41.984375 C 91.578125 41.902344 91.242188 41.984375 90.933594 42.207031 C 90.414062 42.589844 89.886719 42.957031 89.371094 43.34375 C 88.484375 44.015625 87.488281 44.492188 86.476562 44.941406 C 86.132812 45.09375 85.769531 45.1875 85.398438 45.238281 C 85.320312 45.25 85.242188 45.25 85.164062 45.242188 C 85.085938 45.234375 85.03125 45.1875 85.023438 45.105469 C 85.011719 45.015625 85.066406 44.960938 85.148438 44.933594 C 85.171875 44.921875 85.203125 44.917969 85.230469 44.914062 C 85.695312 44.878906 86.132812 44.738281 86.550781 44.542969 C 87.035156 44.3125 87.527344 44.085938 88 43.835938 C 88.621094 43.503906 89.179688 43.082031 89.738281 42.65625 C 89.777344 42.628906 89.8125 42.589844 89.855469 42.566406 C 90.160156 42.402344 90.328125 42.136719 90.464844 41.832031 C 90.648438 41.425781 90.847656 41.023438 91.042969 40.625 C 91.347656 40.003906 91.5625 39.355469 91.671875 38.671875 C 91.734375 38.292969 91.824219 37.921875 91.953125 37.5625 C 92.152344 37 92.257812 36.414062 92.351562 35.828125 C 92.371094 35.71875 92.335938 35.636719 92.273438 35.554688 C 92.113281 35.335938 91.960938 35.109375 91.925781 34.835938 C 91.886719 34.527344 91.957031 34.242188 92.160156 34 C 92.40625 33.707031 92.71875 33.75 92.882812 34.097656 C 93.027344 34.410156 93.058594 34.742188 93 35.074219 C 92.945312 35.394531 92.871094 35.714844 92.664062 35.980469 C 92.609375 36.046875 92.605469 36.136719 92.59375 36.222656 C 92.554688 36.625 92.476562 37.023438 92.34375 37.40625 C 92.160156 37.925781 92.027344 38.460938 91.925781 39.003906 C 91.820312 39.570312 91.625 40.109375 91.371094 40.628906 C 91.203125 40.976562 91.03125 41.328125 90.863281 41.679688 C 90.839844 41.726562 90.796875 41.773438 90.816406 41.84375 Z M 90.816406 41.84375 " fill-opacity="1" fill-rule="nonzero"/></g><g clip-path="url(#a11142b44e)"><path fill="#ffffff" d="M 50.160156 95.945312 C 48.890625 96.765625 47.625 97.550781 46.507812 98.554688 C 46.347656 98.695312 46.304688 98.859375 46.328125 99.046875 C 46.351562 99.238281 46.378906 99.425781 46.421875 99.613281 C 46.550781 100.171875 46.644531 100.738281 46.679688 101.308594 C 46.707031 101.757812 46.628906 102.199219 46.5 102.628906 C 46.394531 102.988281 46.257812 103.339844 46.210938 103.714844 C 46.195312 103.855469 46.175781 104 46.195312 104.136719 C 46.292969 104.808594 46.1875 105.464844 46.046875 106.117188 C 45.921875 106.707031 45.773438 107.289062 45.636719 107.875 C 45.621094 107.941406 45.601562 108.011719 45.574219 108.078125 C 45.503906 108.230469 45.375 108.273438 45.222656 108.203125 C 45.195312 108.191406 45.171875 108.175781 45.148438 108.160156 C 44.648438 107.753906 44.183594 107.324219 44.03125 106.660156 C 43.949219 106.320312 43.84375 105.992188 43.726562 105.664062 C 43.554688 105.179688 43.53125 104.679688 43.609375 104.175781 C 43.753906 103.289062 43.929688 102.40625 44.203125 101.546875 C 44.316406 101.199219 44.445312 100.855469 44.589844 100.515625 C 44.632812 100.421875 44.667969 100.324219 44.695312 100.21875 C 44.453125 100.417969 44.214844 100.609375 44.003906 100.835938 C 43.539062 101.332031 43.042969 101.800781 42.554688 102.269531 C 42.464844 102.359375 42.363281 102.441406 42.277344 102.53125 C 41.695312 103.128906 41.253906 103.8125 41.007812 104.613281 C 40.757812 105.4375 40.621094 106.28125 40.660156 107.144531 C 40.667969 107.371094 40.660156 107.597656 40.664062 107.824219 C 40.671875 108.039062 40.722656 108.234375 40.84375 108.421875 C 41.046875 108.734375 41.179688 109.078125 41.238281 109.445312 C 41.265625 109.597656 41.25 109.742188 41.203125 109.886719 C 41.144531 110.066406 41.046875 110.207031 40.84375 110.230469 C 40.636719 110.257812 40.488281 110.160156 40.386719 109.988281 C 40.257812 109.769531 40.195312 109.53125 40.183594 109.28125 C 40.171875 109.09375 40.203125 108.914062 40.238281 108.734375 C 40.28125 108.519531 40.324219 108.300781 40.371094 108.089844 C 40.398438 107.980469 40.390625 107.878906 40.382812 107.769531 C 40.289062 106.5625 40.433594 105.382812 40.8125 104.234375 C 40.867188 104.066406 40.945312 103.910156 41.023438 103.742188 C 40.988281 103.746094 40.972656 103.742188 40.964844 103.75 C 40.472656 104.109375 39.980469 104.46875 39.492188 104.832031 C 39.328125 104.953125 39.175781 105.097656 39.035156 105.246094 C 38.742188 105.554688 38.433594 105.84375 38.101562 106.109375 C 38.035156 106.164062 37.972656 106.21875 37.929688 106.296875 C 37.503906 107.078125 37.351562 107.902344 37.578125 108.777344 C 37.707031 109.265625 37.757812 109.761719 37.820312 110.261719 C 37.882812 110.773438 37.96875 111.285156 38.09375 111.785156 C 38.164062 112.070312 38.289062 112.332031 38.421875 112.589844 C 38.558594 112.863281 38.660156 113.148438 38.628906 113.464844 C 38.609375 113.695312 38.53125 113.90625 38.4375 114.113281 C 38.261719 114.511719 38.121094 114.917969 38.054688 115.347656 C 38.015625 115.621094 37.984375 115.894531 37.949219 116.167969 C 37.9375 116.25 37.925781 116.335938 37.898438 116.417969 C 37.828125 116.613281 37.652344 116.652344 37.5 116.507812 C 37.453125 116.464844 37.417969 116.410156 37.386719 116.355469 C 37.148438 115.941406 36.882812 115.550781 36.628906 115.148438 C 36.289062 114.613281 36.121094 114.015625 36.027344 113.394531 C 35.933594 112.808594 35.894531 112.214844 35.859375 111.621094 C 35.804688 110.777344 35.941406 109.957031 36.179688 109.148438 C 36.261719 108.863281 36.347656 108.582031 36.4375 108.28125 C 36.347656 108.285156 36.324219 108.347656 36.285156 108.390625 C 35.800781 108.980469 35.351562 109.601562 34.9375 110.242188 C 34.753906 110.53125 34.570312 110.820312 34.347656 111.074219 C 34.132812 111.328125 34.027344 111.621094 33.953125 111.933594 C 33.824219 112.492188 33.761719 113.0625 33.699219 113.632812 C 33.648438 114.125 33.59375 114.617188 33.605469 115.113281 C 33.609375 115.371094 33.636719 115.621094 33.667969 115.875 C 33.691406 116.050781 33.753906 116.214844 33.863281 116.363281 C 34.039062 116.605469 34.160156 116.875 34.273438 117.152344 C 34.371094 117.394531 34.398438 117.644531 34.382812 117.902344 C 34.371094 118.097656 34.304688 118.277344 34.191406 118.433594 C 33.964844 118.757812 33.585938 118.726562 33.421875 118.367188 C 33.285156 118.070312 33.242188 117.753906 33.226562 117.4375 C 33.210938 117.0625 33.238281 116.683594 33.28125 116.3125 C 33.3125 116.066406 33.328125 115.824219 33.292969 115.578125 C 33.21875 115.0625 33.261719 114.546875 33.3125 114.03125 C 33.382812 113.363281 33.460938 112.695312 33.589844 112.035156 C 33.59375 112.023438 33.585938 112.007812 33.585938 111.996094 C 33.53125 111.960938 33.507812 112.011719 33.484375 112.039062 C 33.113281 112.449219 32.707031 112.824219 32.347656 113.242188 C 32 113.644531 31.757812 114.105469 31.503906 114.5625 C 31.480469 114.605469 31.464844 114.65625 31.457031 114.703125 C 31.347656 115.273438 31.3125 115.839844 31.472656 116.40625 C 31.488281 116.46875 31.5 116.53125 31.519531 116.59375 C 31.777344 117.414062 31.746094 118.238281 31.566406 119.070312 C 31.4375 119.65625 31.328125 120.25 31.253906 120.84375 C 31.207031 121.246094 31.226562 121.652344 31.253906 122.054688 C 31.265625 122.207031 31.28125 122.363281 31.285156 122.519531 C 31.289062 122.726562 31.191406 122.832031 30.984375 122.851562 C 30.769531 122.871094 30.597656 122.789062 30.46875 122.617188 C 30.390625 122.511719 30.339844 122.394531 30.316406 122.269531 C 30.242188 121.910156 30.074219 121.589844 29.871094 121.289062 C 29.65625 120.96875 29.496094 120.625 29.355469 120.269531 C 29.117188 119.679688 29.085938 119.074219 29.199219 118.453125 C 29.230469 118.289062 29.261719 118.121094 29.273438 117.945312 C 29.242188 118.011719 29.210938 118.074219 29.183594 118.140625 C 28.785156 119.132812 28.378906 120.121094 27.992188 121.117188 C 27.824219 121.535156 27.738281 121.984375 27.566406 122.40625 C 27.53125 122.488281 27.539062 122.570312 27.558594 122.65625 C 27.667969 123.074219 27.605469 123.484375 27.480469 123.890625 C 27.382812 124.210938 27.199219 124.472656 26.917969 124.664062 C 26.859375 124.703125 26.796875 124.742188 26.734375 124.769531 C 26.433594 124.886719 26.175781 124.761719 26.089844 124.449219 C 26.039062 124.273438 26.058594 124.097656 26.109375 123.925781 C 26.191406 123.652344 26.320312 123.402344 26.492188 123.171875 C 26.753906 122.824219 27.019531 122.472656 27.285156 122.121094 C 27.339844 122.046875 27.363281 121.957031 27.390625 121.871094 C 27.546875 121.371094 27.6875 120.863281 27.898438 120.382812 C 28.265625 119.554688 28.5625 118.699219 28.921875 117.867188 C 28.980469 117.730469 29.046875 117.601562 29.089844 117.449219 C 29 117.53125 28.902344 117.605469 28.8125 117.691406 C 28.457031 118.039062 28.070312 118.347656 27.65625 118.621094 C 27.058594 119.015625 26.488281 119.445312 25.84375 119.761719 C 25.769531 119.796875 25.71875 119.851562 25.664062 119.910156 C 25.523438 120.074219 25.351562 120.195312 25.160156 120.292969 C 25.039062 120.355469 24.910156 120.386719 24.773438 120.390625 C 24.316406 120.40625 24.0625 120.007812 24.269531 119.597656 C 24.378906 119.375 24.566406 119.25 24.804688 119.226562 C 25.097656 119.199219 25.402344 119.191406 25.65625 119.394531 C 25.726562 119.449219 25.789062 119.414062 25.851562 119.375 C 26.019531 119.273438 26.195312 119.175781 26.359375 119.070312 C 26.808594 118.773438 27.253906 118.472656 27.703125 118.175781 C 28.050781 117.941406 28.355469 117.652344 28.667969 117.375 C 29.683594 116.46875 30.542969 115.429688 31.246094 114.265625 C 31.410156 113.992188 31.5625 113.710938 31.742188 113.449219 C 31.890625 113.234375 32.046875 113.023438 32.230469 112.835938 C 32.269531 112.796875 32.320312 112.761719 32.332031 112.683594 C 32.261719 112.671875 32.214844 112.71875 32.167969 112.75 C 31.765625 112.992188 31.390625 113.269531 31.019531 113.554688 C 30.347656 114.082031 29.59375 114.445312 28.769531 114.664062 C 28.105469 114.835938 27.457031 115.058594 26.785156 115.214844 C 26.332031 115.320312 25.863281 115.355469 25.40625 115.453125 C 25.242188 115.488281 25.074219 115.523438 24.910156 115.570312 C 24.652344 115.648438 24.421875 115.582031 24.207031 115.441406 C 24.039062 115.332031 23.96875 115.179688 24.015625 114.984375 C 24.09375 114.640625 24.261719 114.351562 24.582031 114.175781 C 24.6875 114.117188 24.792969 114.0625 24.902344 114.011719 C 25.242188 113.859375 25.539062 113.652344 25.800781 113.382812 C 26.164062 113.007812 26.496094 112.601562 26.828125 112.195312 C 27.226562 111.707031 27.738281 111.476562 28.359375 111.441406 C 29.539062 111.371094 30.71875 111.339844 31.902344 111.375 C 32.113281 111.378906 32.324219 111.34375 32.53125 111.292969 C 32.875 111.210938 33.210938 111.097656 33.546875 110.992188 C 33.777344 110.917969 33.957031 110.78125 34.125 110.609375 C 34.589844 110.128906 34.957031 109.574219 35.339844 109.03125 C 35.546875 108.742188 35.765625 108.464844 35.992188 108.191406 C 36.308594 107.808594 36.59375 107.40625 36.847656 106.972656 C 36.789062 106.9375 36.75 106.976562 36.714844 107 C 35.453125 107.71875 34.082031 108.097656 32.671875 108.367188 C 32.460938 108.410156 32.253906 108.445312 32.042969 108.472656 C 31.910156 108.492188 31.804688 108.546875 31.703125 108.628906 C 31.320312 108.933594 30.890625 109.121094 30.402344 109.144531 C 29.984375 109.164062 29.597656 109.066406 29.289062 108.769531 C 29.054688 108.542969 29.035156 108.234375 29.246094 108.035156 C 29.378906 107.914062 29.53125 107.824219 29.714844 107.796875 C 30.015625 107.753906 30.316406 107.742188 30.625 107.773438 C 30.90625 107.800781 31.1875 107.792969 31.464844 107.863281 C 31.589844 107.894531 31.710938 107.933594 31.824219 107.988281 C 31.976562 108.0625 32.132812 108.125 32.3125 108.097656 C 33.59375 107.898438 34.835938 107.570312 36.007812 107.015625 C 36.992188 106.550781 37.878906 105.929688 38.628906 105.128906 C 39.015625 104.714844 39.457031 104.378906 39.914062 104.058594 C 40.007812 103.992188 40.09375 103.925781 40.207031 103.84375 C 40.148438 103.832031 40.128906 103.824219 40.109375 103.828125 C 39.4375 103.957031 38.761719 104.085938 38.089844 104.222656 C 37.527344 104.335938 37.023438 104.601562 36.507812 104.828125 C 35.898438 105.097656 35.269531 105.316406 34.617188 105.453125 C 34.160156 105.546875 33.703125 105.535156 33.242188 105.496094 C 32.832031 105.460938 32.429688 105.390625 32.015625 105.398438 C 31.855469 105.398438 31.691406 105.414062 31.53125 105.433594 C 30.929688 105.507812 30.34375 105.40625 29.761719 105.289062 C 29.183594 105.171875 28.601562 105.113281 28.011719 105.136719 C 27.90625 105.140625 27.800781 105.144531 27.695312 105.132812 C 27.476562 105.109375 27.386719 104.949219 27.488281 104.753906 C 27.542969 104.644531 27.621094 104.550781 27.707031 104.464844 C 28.148438 104.023438 28.628906 103.632812 29.222656 103.398438 C 29.699219 103.207031 30.175781 103.003906 30.675781 102.859375 C 31.308594 102.679688 31.910156 102.414062 32.511719 102.144531 C 33.042969 101.90625 33.578125 101.6875 34.164062 101.609375 C 34.46875 101.570312 34.78125 101.542969 35.089844 101.511719 C 36.359375 101.390625 37.605469 101.523438 38.828125 101.875 C 39.160156 101.96875 39.496094 102.054688 39.820312 102.183594 C 40.039062 102.273438 40.234375 102.394531 40.410156 102.554688 C 40.550781 102.683594 40.691406 102.8125 40.835938 102.9375 C 41.023438 103.097656 41.121094 103.097656 41.3125 102.933594 C 41.347656 102.898438 41.386719 102.867188 41.425781 102.835938 C 42.042969 102.234375 42.679688 101.648438 43.28125 101.027344 C 43.929688 100.363281 44.628906 99.753906 45.320312 99.136719 C 45.542969 98.941406 45.761719 98.738281 45.980469 98.539062 C 46.003906 98.515625 46.035156 98.492188 46.035156 98.449219 C 45.972656 98.425781 45.929688 98.46875 45.882812 98.492188 C 45.53125 98.660156 45.179688 98.828125 44.820312 98.984375 C 44.042969 99.320312 43.210938 99.472656 42.398438 99.691406 C 41.984375 99.804688 41.566406 99.917969 41.136719 99.976562 C 40.300781 100.09375 39.460938 100.125 38.617188 100.050781 C 38.296875 100.023438 37.96875 100.035156 37.648438 99.976562 C 37.570312 99.960938 37.507812 100 37.441406 100.023438 C 36.933594 100.199219 36.417969 100.21875 35.902344 100.042969 C 35.753906 99.992188 35.613281 99.925781 35.488281 99.832031 C 35.414062 99.777344 35.351562 99.710938 35.300781 99.628906 C 35.121094 99.324219 35.21875 99.035156 35.546875 98.910156 C 35.785156 98.816406 36.035156 98.800781 36.28125 98.84375 C 36.804688 98.929688 37.269531 99.144531 37.621094 99.554688 C 37.6875 99.628906 37.757812 99.667969 37.855469 99.683594 C 38.46875 99.785156 39.089844 99.824219 39.714844 99.808594 C 40.609375 99.78125 41.484375 99.644531 42.351562 99.414062 C 43.132812 99.210938 43.890625 98.9375 44.660156 98.683594 C 45.632812 98.367188 46.5 97.847656 47.375 97.347656 C 47.851562 97.074219 48.292969 96.734375 48.765625 96.410156 C 48.6875 96.390625 48.640625 96.425781 48.59375 96.4375 C 48.351562 96.503906 48.117188 96.574219 47.875 96.636719 C 47.464844 96.742188 47.066406 96.882812 46.671875 97.046875 C 46.109375 97.28125 45.535156 97.484375 44.945312 97.640625 C 44.5625 97.742188 44.179688 97.761719 43.792969 97.675781 C 43.265625 97.558594 42.730469 97.507812 42.195312 97.457031 C 41.648438 97.40625 41.125 97.261719 40.609375 97.085938 C 40.300781 96.984375 39.988281 96.890625 39.671875 96.816406 C 39.503906 96.777344 39.34375 96.722656 39.191406 96.648438 C 38.609375 96.367188 38.015625 96.117188 37.394531 95.945312 C 36.871094 95.796875 36.398438 95.542969 35.910156 95.320312 C 35.628906 95.195312 35.347656 95.089844 35.050781 95.011719 C 34.628906 94.898438 34.210938 94.769531 33.792969 94.636719 C 33.535156 94.554688 33.492188 94.386719 33.691406 94.195312 C 33.976562 93.921875 34.285156 93.667969 34.65625 93.511719 C 34.832031 93.4375 35.003906 93.351562 35.15625 93.234375 C 35.472656 93 35.828125 92.847656 36.203125 92.734375 C 36.945312 92.507812 37.695312 92.339844 38.46875 92.28125 C 38.648438 92.265625 38.820312 92.285156 38.988281 92.355469 C 39.265625 92.476562 39.554688 92.570312 39.851562 92.644531 C 40.175781 92.730469 40.472656 92.878906 40.777344 93.011719 C 40.957031 93.085938 41.097656 93.222656 41.230469 93.359375 C 41.402344 93.539062 41.609375 93.613281 41.859375 93.609375 C 42.253906 93.597656 42.652344 93.589844 43.046875 93.605469 C 43.964844 93.640625 44.820312 93.882812 45.558594 94.453125 C 45.753906 94.601562 45.964844 94.703125 46.207031 94.75 C 46.597656 94.828125 46.96875 94.964844 47.3125 95.167969 C 47.84375 95.480469 48.417969 95.671875 49.015625 95.804688 C 49.394531 95.886719 49.730469 95.804688 50.039062 95.582031 C 50.558594 95.203125 51.089844 94.835938 51.601562 94.445312 C 52.488281 93.773438 53.484375 93.300781 54.496094 92.847656 C 54.839844 92.695312 55.203125 92.601562 55.578125 92.550781 C 55.652344 92.542969 55.730469 92.539062 55.808594 92.546875 C 55.886719 92.554688 55.941406 92.601562 55.949219 92.683594 C 55.960938 92.777344 55.90625 92.828125 55.828125 92.859375 C 55.800781 92.867188 55.773438 92.875 55.742188 92.875 C 55.277344 92.910156 54.84375 93.050781 54.421875 93.25 C 53.9375 93.476562 53.449219 93.703125 52.972656 93.957031 C 52.351562 94.285156 51.792969 94.710938 51.234375 95.132812 C 51.195312 95.164062 51.160156 95.199219 51.117188 95.222656 C 50.8125 95.386719 50.644531 95.652344 50.507812 95.957031 C 50.328125 96.367188 50.128906 96.765625 49.929688 97.164062 C 49.625 97.785156 49.414062 98.4375 49.300781 99.117188 C 49.242188 99.496094 49.148438 99.867188 49.019531 100.226562 C 48.820312 100.792969 48.714844 101.375 48.621094 101.964844 C 48.601562 102.070312 48.640625 102.152344 48.703125 102.234375 C 48.863281 102.453125 49.011719 102.679688 49.046875 102.957031 C 49.089844 103.265625 49.015625 103.550781 48.816406 103.789062 C 48.566406 104.082031 48.253906 104.039062 48.089844 103.691406 C 47.945312 103.378906 47.917969 103.046875 47.972656 102.714844 C 48.027344 102.394531 48.101562 102.074219 48.3125 101.808594 C 48.363281 101.742188 48.371094 101.652344 48.378906 101.566406 C 48.417969 101.164062 48.496094 100.769531 48.628906 100.386719 C 48.8125 99.863281 48.945312 99.328125 49.046875 98.785156 C 49.152344 98.21875 49.351562 97.679688 49.601562 97.164062 C 49.773438 96.8125 49.941406 96.464844 50.113281 96.113281 C 50.132812 96.0625 50.175781 96.019531 50.160156 95.945312 Z M 50.160156 95.945312 " fill-opacity="1" fill-rule="nonzero"/></g><path stroke-linecap="butt" transform="matrix(0, 1.125584, -1.125584, 0, 73.161647, 12.898891)" fill="none" stroke-linejoin="miter" d="M -0.000402687 0.501065 L 99.510436 0.501065 " stroke="#ffffff" stroke-width="1" stroke-opacity="1" stroke-miterlimit="4"/><g fill="#ffffff" fill-opacity="1"><g transform="translate(37.909223, 87.581147)"><g><path d="M 8.625 -34.28125 L 24.546875 -34.28125 L 24.546875 -33.359375 L 21.84375 -33.359375 L 21.84375 -12.203125 C 21.84375 -7.785156 20.847656 -4.570312 18.859375 -2.5625 C 16.867188 -0.5625 13.878906 0.4375 9.890625 0.4375 C 7.242188 0.4375 5.144531 -0.0664062 3.59375 -1.078125 C 2.050781 -2.085938 1.28125 -3.507812 1.28125 -5.34375 C 1.28125 -6.75 1.671875 -7.847656 2.453125 -8.640625 C 3.234375 -9.441406 4.300781 -9.84375 5.65625 -9.84375 C 7.007812 -9.84375 8.019531 -9.5 8.6875 -8.8125 C 9.363281 -8.125 9.703125 -7.296875 9.703125 -6.328125 C 9.703125 -5.367188 9.519531 -4.398438 9.15625 -3.421875 L 7.25 -3.421875 C 6.957031 -2.929688 6.8125 -2.46875 6.8125 -2.03125 C 6.8125 -1.59375 7.03125 -1.21875 7.46875 -0.90625 C 7.90625 -0.59375 8.484375 -0.4375 9.203125 -0.4375 C 10.515625 -0.4375 11.359375 -0.953125 11.734375 -1.984375 C 12.109375 -3.015625 12.296875 -5.242188 12.296875 -8.671875 L 12.296875 -33.359375 L 8.625 -33.359375 Z M 8.625 -34.28125 "/></g></g></g><g fill="#ffffff" fill-opacity="1"><g transform="translate(78.075313, 87.581147)"><g><path d="M 19.59375 -33.84375 C 14.53125 -33.84375 12 -28.960938 12 -19.203125 L 12 -15.328125 C 12 -10.691406 12.664062 -7.054688 14 -4.421875 C 15.34375 -1.796875 17.320312 -0.484375 19.9375 -0.484375 C 23.53125 -0.484375 26.828125 -3.976562 29.828125 -10.96875 L 30.71875 -10.96875 L 30.375 -0.046875 L 29.828125 -0.046875 C 29.628906 -0.410156 29.445312 -0.664062 29.28125 -0.8125 C 29.125 -0.957031 28.890625 -1.03125 28.578125 -1.03125 C 28.265625 -1.03125 27.078125 -0.773438 25.015625 -0.265625 C 22.960938 0.234375 20.878906 0.484375 18.765625 0.484375 C 13.441406 0.484375 9.316406 -0.945312 6.390625 -3.8125 C 3.472656 -6.6875 2.015625 -11.003906 2.015625 -16.765625 C 2.015625 -22.535156 3.539062 -26.988281 6.59375 -30.125 C 9.644531 -33.257812 13.75 -34.828125 18.90625 -34.828125 C 20.894531 -34.828125 22.84375 -34.570312 24.75 -34.0625 C 26.664062 -33.5625 27.785156 -33.3125 28.109375 -33.3125 C 28.441406 -33.3125 28.6875 -33.382812 28.84375 -33.53125 C 29.007812 -33.675781 29.191406 -33.925781 29.390625 -34.28125 L 29.921875 -34.28125 L 30.328125 -23.65625 L 29.4375 -23.65625 C 27.96875 -26.957031 26.457031 -29.476562 24.90625 -31.21875 C 23.351562 -32.96875 21.582031 -33.84375 19.59375 -33.84375 Z M 19.59375 -33.84375 "/></g></g></g><g fill="#ffffff" fill-opacity="1"><g transform="translate(82.357401, 92.263979)"><g><path d="M -0.136719 2.808594 C -0.136719 3.980469 0.425781 4.910156 1.316406 5.199219 L 1.453125 4.773438 C 0.726562 4.542969 0.261719 3.777344 0.261719 2.808594 C 0.261719 1.507812 0.910156 0.675781 1.921875 0.671875 C 2.9375 0.671875 3.582031 1.4375 3.582031 2.636719 C 3.582031 3.503906 3.167969 4.1875 2.511719 4.394531 L 2.679688 4.804688 C 3.476562 4.511719 3.984375 3.664062 3.984375 2.632812 C 3.984375 1.152344 3.183594 0.21875 1.921875 0.21875 C 0.667969 0.21875 -0.136719 1.222656 -0.136719 2.808594 Z M -0.136719 2.808594 "/></g></g></g><g fill="#ffffff" fill-opacity="1"><g transform="translate(82.357401, 98.147308)"><g><path d="M 0 0.273438 L 0 3.242188 L 0.398438 3.242188 L 0.398438 0.726562 L 3.851562 0.726562 L 3.851562 0.273438 Z M 0 0.273438 "/></g></g></g><g fill="#ffffff" fill-opacity="1"><g transform="translate(82.357401, 101.929662)"><g><path d="M 0 0.0273438 L 0 0.511719 L 0.921875 1.015625 L 0.921875 3.660156 L 0 4.167969 L 0 4.648438 L 3.851562 2.609375 L 3.851562 2.074219 Z M 1.328125 1.21875 L 3.449219 2.335938 L 3.449219 2.347656 L 1.328125 3.460938 Z M 1.328125 1.21875 "/></g></g></g><g fill="#ffffff" fill-opacity="1"><g transform="translate(82.357401, 107.114487)"><g><path d="M -0.136719 2.328125 C -0.136719 3.578125 0.539062 4.433594 1.753906 4.433594 L 3.851562 4.433594 L 3.851562 3.980469 L 1.746094 3.980469 C 0.769531 3.980469 0.277344 3.316406 0.277344 2.332031 C 0.277344 1.347656 0.769531 0.675781 1.746094 0.675781 L 3.851562 0.675781 L 3.851562 0.21875 L 1.753906 0.21875 C 0.539062 0.21875 -0.136719 1.074219 -0.136719 2.328125 Z M -0.136719 2.328125 "/></g></g></g><g fill="#ffffff" fill-opacity="1"><g transform="translate(82.357401, 112.277479)"><g><path d="M -0.136719 2.457031 C -0.136719 3.554688 0.339844 4.308594 1.054688 4.308594 C 1.636719 4.308594 1.960938 3.84375 2.125 2.769531 L 2.277344 1.78125 C 2.371094 1.128906 2.550781 0.855469 2.867188 0.855469 C 3.28125 0.855469 3.582031 1.371094 3.582031 2.085938 C 3.582031 2.796875 3.265625 3.398438 2.828125 3.636719 L 3.097656 3.980469 C 3.621094 3.695312 3.984375 2.960938 3.984375 2.085938 C 3.984375 1.109375 3.542969 0.398438 2.839844 0.398438 C 2.277344 0.398438 1.992188 0.785156 1.855469 1.691406 L 1.691406 2.703125 C 1.574219 3.511719 1.355469 3.855469 1.015625 3.855469 C 0.589844 3.855469 0.265625 3.304688 0.265625 2.480469 C 0.265625 1.519531 0.710938 0.6875 1.34375 0.484375 L 1.09375 0.109375 C 0.371094 0.402344 -0.136719 1.320312 -0.136719 2.457031 Z M -0.136719 2.457031 "/></g></g></g><g fill="#ffffff" fill-opacity="1"><g transform="translate(82.357401, 117.205821)"><g><path d="M -0.136719 2.457031 C -0.136719 3.554688 0.339844 4.308594 1.054688 4.308594 C 1.636719 4.308594 1.960938 3.84375 2.125 2.769531 L 2.277344 1.78125 C 2.371094 1.128906 2.550781 0.855469 2.867188 0.855469 C 3.28125 0.855469 3.582031 1.371094 3.582031 2.085938 C 3.582031 2.796875 3.265625 3.398438 2.828125 3.636719 L 3.097656 3.980469 C 3.621094 3.695312 3.984375 2.960938 3.984375 2.085938 C 3.984375 1.109375 3.542969 0.398438 2.839844 0.398438 C 2.277344 0.398438 1.992188 0.785156 1.855469 1.691406 L 1.691406 2.703125 C 1.574219 3.511719 1.355469 3.855469 1.015625 3.855469 C 0.589844 3.855469 0.265625 3.304688 0.265625 2.480469 C 0.265625 1.519531 0.710938 0.6875 1.34375 0.484375 L 1.09375 0.109375 C 0.371094 0.402344 -0.136719 1.320312 -0.136719 2.457031 Z M -0.136719 2.457031 "/></g></g></g><g fill="#ffffff" fill-opacity="1"><g transform="translate(66.387288, 46.927415)"><g><path d="M 0.109375 -1.621094 C 0.109375 -2.515625 -0.449219 -3.058594 -1.34375 -3.058594 L -3.851562 -3.058594 L -3.851562 -2.605469 L -1.386719 -2.605469 C -0.710938 -2.605469 -0.289062 -2.222656 -0.289062 -1.59375 C -0.289062 -0.976562 -0.640625 -0.566406 -1.265625 -0.480469 L -1.09375 -0.0820312 C -0.320312 -0.234375 0.109375 -0.785156 0.109375 -1.621094 Z M 0.109375 -1.621094 "/></g></g></g><g fill="#ffffff" fill-opacity="1"><g transform="translate(66.387288, 43.139599)"><g><path d="M 0 -0.273438 L 0 -4.050781 L -0.398438 -4.050781 L -0.398438 -0.714844 L -1.792969 -0.714844 L -1.792969 -3.777344 L -2.183594 -3.777344 L -2.183594 -0.714844 L -3.445312 -0.714844 L -3.445312 -3.996094 L -3.851562 -3.996094 L -3.851562 -0.273438 Z M 0 -0.273438 "/></g></g></g><g fill="#ffffff" fill-opacity="1"><g transform="translate(66.387288, 38.46774)"><g><path d="M 0.109375 -4.214844 C 0.109375 -4.488281 -0.0429688 -4.695312 -0.257812 -4.84375 L -0.523438 -4.613281 C -0.371094 -4.527344 -0.273438 -4.40625 -0.273438 -4.277344 C -0.273438 -4.132812 -0.386719 -4.0625 -0.53125 -4.003906 L -1.152344 -3.734375 C -1.382812 -3.640625 -1.566406 -3.503906 -1.683594 -3.296875 L -1.6875 -3.296875 C -1.742188 -4.003906 -2.15625 -4.457031 -2.734375 -4.457031 C -3.414062 -4.457031 -3.851562 -3.90625 -3.851562 -3.0625 L -3.851562 -0.273438 L 0 -0.273438 L 0 -0.726562 L -1.59375 -0.726562 L -1.59375 -2.648438 C -1.59375 -2.925781 -1.398438 -3.144531 -1.113281 -3.265625 L -0.371094 -3.585938 C -0.0976562 -3.703125 0.109375 -3.894531 0.109375 -4.214844 Z M -1.992188 -0.726562 L -3.445312 -0.726562 L -3.445312 -3.03125 C -3.445312 -3.613281 -3.15625 -3.996094 -2.714844 -3.996094 C -2.28125 -3.996094 -1.992188 -3.613281 -1.992188 -3.03125 Z M -1.992188 -0.726562 "/></g></g></g><g fill="#ffffff" fill-opacity="1"><g transform="translate(66.387288, 33.11375)"><g><path d="M 0.109375 -4.214844 C 0.109375 -4.488281 -0.0429688 -4.695312 -0.257812 -4.84375 L -0.523438 -4.613281 C -0.371094 -4.527344 -0.273438 -4.40625 -0.273438 -4.277344 C -0.273438 -4.132812 -0.386719 -4.0625 -0.53125 -4.003906 L -1.152344 -3.734375 C -1.382812 -3.640625 -1.566406 -3.503906 -1.683594 -3.296875 L -1.6875 -3.296875 C -1.742188 -4.003906 -2.15625 -4.457031 -2.734375 -4.457031 C -3.414062 -4.457031 -3.851562 -3.90625 -3.851562 -3.0625 L -3.851562 -0.273438 L 0 -0.273438 L 0 -0.726562 L -1.59375 -0.726562 L -1.59375 -2.648438 C -1.59375 -2.925781 -1.398438 -3.144531 -1.113281 -3.265625 L -0.371094 -3.585938 C -0.0976562 -3.703125 0.109375 -3.894531 0.109375 -4.214844 Z M -1.992188 -0.726562 L -3.445312 -0.726562 L -3.445312 -3.03125 C -3.445312 -3.613281 -3.15625 -3.996094 -2.714844 -3.996094 C -2.28125 -3.996094 -1.992188 -3.613281 -1.992188 -3.03125 Z M -1.992188 -0.726562 "/></g></g></g><g fill="#ffffff" fill-opacity="1"><g transform="translate(66.387288, 27.759761)"><g><path d="M 0 -1.933594 L 0 -2.386719 L -1.429688 -2.386719 L -3.851562 -4.308594 L -3.851562 -3.730469 L -1.851562 -2.164062 L -1.851562 -2.15625 L -3.851562 -0.578125 L -3.851562 0.00390625 L -1.429688 -1.933594 Z M 0 -1.933594 "/></g></g></g></svg>